<svg xmlns="http://www.w3.org/2000/svg" width="20.332" height="35" viewBox="0 0 20.332 35"><path d="M17.968 0H2.364C1.064 0 0 1.063 0 2.364v30.27C0 33.937 1.064 35 2.364 35h15.604c1.3 0 2.364-1.063 2.364-2.364V2.364c0-1.3-1.064-2.364-2.364-2.364zM7.67 1.704h4.992c.158 0 .286.128.286.287 0 .16-.128.287-.286.287H7.67c-.158 0-.286-.128-.286-.286 0-.158.128-.286.286-.286zm2.496 32.114c-.653 0-1.182-.53-1.182-1.182 0-.653.53-1.182 1.182-1.182s1.182.53 1.182 1.182c0 .653-.53 1.182-1.182 1.182zm8.52-3.193H1.647V3.75h17.04v26.875z"/></svg>