<svg xmlns="http://www.w3.org/2000/svg" width="50" height="50" viewBox="0 0 50 50"><path d="M35.346 8.833H14.654c-1.784 0-3.234 1.45-3.234 3.233v25.866c0 1.783 1.45 3.233 3.234 3.233h20.69c1.785 0 3.235-1.45 3.235-3.233V12.067c0-1.783-1.45-3.234-3.234-3.234zm1.94 29.1c0 1.07-.87 1.94-1.94 1.94H14.654c-1.07 0-1.94-.87-1.94-1.94V12.067c0-1.07.87-1.94 1.94-1.94h20.69c1.07 0 1.94.87 1.94 1.94v25.866zM31.818 22.97H18.182c-.328 0-.593.266-.593.594s.264.594.592.594H31.82c.327 0 .592-.266.592-.594s-.266-.594-.594-.594zM31.818 25.678H18.182c-.328 0-.593.266-.593.594 0 .328.264.594.592.594H31.82c.327 0 .592-.266.592-.594 0-.33-.266-.594-.594-.594zM31.818 28.385H18.182c-.328 0-.593.266-.593.594s.264.593.592.593H31.82c.327 0 .592-.266.592-.594s-.266-.595-.594-.595zM31.818 31.093H25c-.328 0-.594.266-.594.594s.266.594.594.594h6.818c.328 0 .593-.265.593-.593s-.264-.594-.592-.594zM31.818 36.44h-4.773c-.33 0-.594.266-.594.594 0 .328.266.594.595.594h4.773c.328 0 .593-.266.593-.594 0-.328-.264-.594-.592-.594zM25.662 20.36c0-1.125-1.294-2.64-3.04-3.084.73-.49 1.232-1.46 1.232-2.333 0-1.23-.997-2.23-2.23-2.23-1.23 0-2.228 1-2.228 2.23 0 .872.503 1.84 1.23 2.333-1.743.443-3.038 1.96-3.038 3.083 0 1.327 8.074 1.327 8.074 0zm-4.217-2.437h-.01l-.37-.424c.18.063.365.102.56.102.195 0 .38-.038.56-.102l-.37.423h-.01l.953 2.3-1.133 1.13-1.132-1.13.952-2.3z"/></svg>