<svg xmlns="http://www.w3.org/2000/svg" width="126" height="126" viewBox="0 0 126 126"><path d="M53.128 26h18.745v18.745H53.128zM10.628 76.375h18.745V95.12H10.628zM52.628 76.375h18.745V95.12H52.628zM96.628 76.375h18.745V95.12H96.628zM108.716 65.272c.743.65 1.063 1.73.98 3.305l1.998.105c.117-2.227-.427-3.835-1.66-4.915-2.967-2.596-9.19-1.427-18.61.34-7.85 1.47-17.52 3.25-28.498 3.47V49h-2v18.577c-10.978-.22-20.648-2-28.496-3.47-9.42-1.768-15.644-2.936-18.61-.34-1.234 1.08-1.778 2.688-1.66 4.915l1.997-.105c-.083-1.574.237-2.655.98-3.305 2.234-1.956 8.716-.74 16.924.8 7.893 1.48 17.605 3.277 28.69 3.51v.047c.398 0 .78-.02 1.176-.024.396.004.78.023 1.178.023v-.047c11.084-.234 20.797-2.03 28.688-3.51 8.207-1.54 14.69-2.757 16.924-.8z"/></svg>