<svg xmlns="http://www.w3.org/2000/svg" width="126" height="126" viewBox="0 0 126 126"><path d="M107.89 17.398h-33c-.145 0-.288.013-.434.022V8.288l-64.408 8.596v91.587l64.408 8.818v-9.412c.146.01.287.022.435.022h33c3.86 0 7-3.143 7-7v-76.5c0-3.86-3.14-7-7-7zM35.65 64.986c0 6.867-3.136 9.176-8.09 9.043-1.16-.032-2.67-.28-3.65-.657l.554-4.273c.688.254 1.574.444 2.566.46 2.125.038 3.463-.966 3.463-4.68V49.893l5.158-.133v15.226zm10.238 9.498c-2.74-.074-5.416-.867-6.746-1.655l1.082-4.523c1.44.78 3.666 1.578 5.988 1.617 2.525.043 3.87-1.002 3.87-2.623 0-1.548-1.167-2.438-4.083-3.52-3.983-1.427-6.542-3.666-6.542-7.196 0-4.145 3.37-7.404 9.06-7.555 2.77-.073 4.83.466 6.312 1.098l-1.26 4.594c-.998-.468-2.76-1.14-5.158-1.1-2.38.04-3.525 1.153-3.525 2.427 0 1.567 1.363 2.25 4.502 3.442 4.364 1.612 6.444 3.924 6.444 7.466 0 4.212-3.224 7.704-9.946 7.526zm65.003 26.414c0 1.654-1.346 3-3 3h-33c-.146 0-.29-.02-.434-.043v-9.38c.894 1.722 2.403 3.023 4.216 3.627 1.952.65 4.46.59 6.297-.148 2.204-.893 3.496-2.735 3.838-5.475.03-.278.05-3.374.05-9.2v-8.783h-4.85l-.02 8.753-.015 8.76-.11.41c-.143.54-.31.862-.608 1.16-.417.415-.95.59-1.843.594-1.273.005-2.037-.534-2.923-2.05-.145-.24-.273-.433-.29-.427-.02.01-.915.55-1.99 1.198l-1.754 1.066V21.444c.144-.02.285-.044.435-.044h33c1.654 0 3 1.345 3 3v76.498zm-3.03-12.357c.46.957.665 1.924.665 3.16 0 1.94-.61 3.484-1.85 4.68-1.162 1.128-2.664 1.792-4.666 2.074-.798.11-2.358.114-3.19 0-3.18-.426-5.534-1.912-7.04-4.45-.193-.315-.232-.42-.183-.464.08-.074 3.85-2.25 3.894-2.25.02 0 .164.19.323.417 1.16 1.714 2.6 2.507 4.532 2.507 1.145 0 2.066-.312 2.65-.902.174-.173.366-.43.44-.584.382-.793.214-1.828-.39-2.477-.49-.524-1.26-.946-3.325-1.832-1.517-.654-2.393-1.075-3.037-1.462-2.53-1.53-3.666-3.463-3.666-6.228 0-1.848.575-3.304 1.778-4.498 1.17-1.16 2.74-1.833 4.612-1.98.71-.056.808-.056 1.56.004 1.537.114 2.7.485 3.79 1.21.59.39 1.448 1.282 1.923 1.995.224.336.407.623.407.644 0 .034-3.602 2.363-3.73 2.418-.04.014-.154-.12-.308-.362-.135-.213-.422-.564-.646-.782-.63-.635-1.248-.882-2.204-.882-.842-.006-1.387.207-1.857.718-.327.352-.476.713-.51 1.248-.04.674.144 1.214.573 1.675.45.48 1.136.857 3.176 1.733 2.7 1.16 4.053 1.962 5.098 3.022.548.555.864.995 1.18 1.65z"/></svg>