<?xml version="1.0" encoding="utf-8"?>
<!-- Generator: Adobe Illustrator 16.0.4, SVG Export Plug-In . SVG Version: 6.00 Build 0)  -->
<!DOCTYPE svg PUBLIC "-//W3C//DTD SVG 1.1//EN" "http://www.w3.org/Graphics/SVG/1.1/DTD/svg11.dtd">
<svg version="1.1" id="Layer_1" xmlns="http://www.w3.org/2000/svg" xmlns:xlink="http://www.w3.org/1999/xlink" x="0px" y="0px"
  width="126px" height="126px" viewBox="0 0 126 126" enable-background="new 0 0 126 126" xml:space="preserve">
  <path d="M107.891,17.398h-33c-0.146,0-0.289,0.013-0.435,0.022V8.288l-64.408,8.596v91.587l64.408,8.817v-9.412
    c0.146,0.011,0.287,0.022,0.435,0.022h33c3.859,0,7-3.143,7-7v-76.5C114.891,20.539,111.75,17.398,107.891,17.398z M35.651,64.986
    c0,6.867-3.137,9.176-8.092,9.043c-1.16-0.031-2.67-0.279-3.65-0.656l0.555-4.273c0.688,0.254,1.574,0.444,2.566,0.459
    c2.125,0.039,3.463-0.965,3.463-4.678V49.892l5.158-0.133V64.986z M45.888,74.484c-2.74-0.074-5.416-0.867-6.746-1.655l1.082-4.522
    c1.441,0.779,3.666,1.578,5.988,1.617c2.525,0.043,3.869-1.002,3.869-2.623c0-1.549-1.166-2.439-4.082-3.52
    c-3.982-1.428-6.541-3.667-6.541-7.197c0-4.145,3.371-7.404,9.061-7.555c2.768-0.072,4.828,0.467,6.311,1.099l-1.26,4.594
    c-0.998-0.468-2.76-1.14-5.158-1.101c-2.379,0.04-3.525,1.154-3.525,2.428c0,1.568,1.363,2.252,4.502,3.443
    c4.365,1.612,6.445,3.924,6.445,7.466C55.833,71.17,52.61,74.662,45.888,74.484z M110.891,100.898c0,1.654-1.347,3-3,3h-33
    c-0.147,0-0.291-0.021-0.435-0.043v-9.379c0.894,1.721,2.403,3.022,4.216,3.626c1.952,0.649,4.459,0.589,6.297-0.148
    c2.205-0.893,3.497-2.735,3.839-5.475c0.03-0.277,0.05-3.373,0.05-9.199v-8.783H86.43h-2.422l-0.02,8.753l-0.015,8.759l-0.109,0.411
    c-0.144,0.54-0.312,0.862-0.609,1.159c-0.417,0.416-0.951,0.59-1.843,0.595c-1.273,0.005-2.037-0.534-2.923-2.051
    c-0.144-0.238-0.272-0.432-0.288-0.426c-0.02,0.01-0.916,0.55-1.991,1.198l-1.754,1.066V21.443c0.144-0.021,0.285-0.044,0.435-0.044
    h33c1.653,0,3,1.346,3,3V100.898z M107.86,88.541c0.461,0.956,0.665,1.923,0.665,3.16c0,1.938-0.61,3.483-1.849,4.678
    c-1.163,1.129-2.665,1.793-4.667,2.075c-0.797,0.109-2.357,0.114-3.189,0c-3.181-0.426-5.534-1.912-7.04-4.449
    c-0.193-0.316-0.232-0.42-0.183-0.465c0.079-0.074,3.849-2.249,3.894-2.249c0.02,0,0.163,0.188,0.322,0.416
    c1.159,1.714,2.601,2.507,4.532,2.507c1.145,0,2.066-0.312,2.65-0.902c0.174-0.173,0.366-0.431,0.441-0.584
    c0.381-0.793,0.213-1.828-0.392-2.477c-0.49-0.525-1.259-0.947-3.324-1.833c-1.517-0.654-2.393-1.075-3.037-1.462
    c-2.53-1.531-3.666-3.463-3.666-6.228c0-1.848,0.575-3.304,1.778-4.498c1.17-1.159,2.74-1.833,4.612-1.981
    c0.709-0.055,0.808-0.055,1.561,0.005c1.536,0.114,2.7,0.485,3.79,1.209c0.59,0.392,1.447,1.283,1.922,1.996
    c0.224,0.337,0.407,0.624,0.407,0.645c0,0.034-3.602,2.363-3.73,2.418c-0.04,0.014-0.154-0.119-0.308-0.362
    c-0.134-0.213-0.421-0.564-0.645-0.782c-0.629-0.635-1.248-0.882-2.204-0.882c-0.842-0.006-1.387,0.207-1.857,0.718
    c-0.327,0.352-0.476,0.713-0.511,1.248c-0.039,0.674,0.145,1.214,0.574,1.675c0.451,0.48,1.136,0.857,3.176,1.733
    c2.7,1.16,4.053,1.962,5.098,3.022C107.228,87.447,107.544,87.887,107.86,88.541z"/>
  </svg>
